<svg xmlns="http://www.w3.org/2000/svg" xmlns:xlink="http://www.w3.org/1999/xlink" width="110" height="110"><defs><linearGradient id="d"><stop offset="0" stop-color="#ffdf0c"/><stop offset="1" stop-color="#edce00"/></linearGradient><linearGradient id="c"><stop offset="0" stop-color="#ea2328"/><stop offset="1" stop-color="#d11419"/></linearGradient><linearGradient id="b"><stop offset="0" stop-color="#57d252"/><stop offset="1" stop-color="#37bf32"/></linearGradient><linearGradient id="a"><stop offset="0" stop-color="#595959"/><stop offset="1" stop-color="#2d2d2d"/></linearGradient><linearGradient><stop offset="0"/><stop offset="1" stop-opacity="0"/></linearGradient><linearGradient xlink:href="#a" x1="523.779" y1="279.595" x2="772.246" y2="476.575" gradientUnits="userSpaceOnUse"/><linearGradient xlink:href="#a" gradientUnits="userSpaceOnUse" x1="523.779" y1="279.595" x2="772.246" y2="476.575" gradientTransform="matrix(.869 0 0 .869 97.872 57.647)"/><linearGradient xlink:href="#a" gradientUnits="userSpaceOnUse" x1="523.779" y1="279.595" x2="772.246" y2="476.575" gradientTransform="matrix(.392 0 0 .131 455.042 562.37)"/><linearGradient xlink:href="#a" gradientUnits="userSpaceOnUse" x1="523.779" y1="279.595" x2="772.246" y2="476.575"/><linearGradient xlink:href="#a" gradientUnits="userSpaceOnUse" x1="523.779" y1="279.595" x2="772.246" y2="476.575"/><linearGradient xlink:href="#a" gradientUnits="userSpaceOnUse" x1="523.779" y1="279.595" x2="772.246" y2="476.575" gradientTransform="translate(-692.965 172.736)"/><filter width="1" height="1" x="0" y="0" color-interpolation-filters="sRGB"><feFlood flood-opacity=".997" flood-color="#000" result="flood"/><feComposite in2="SourceGraphic" in="flood" operator="in" result="composite1"/><feGaussianBlur stdDeviation="3" result="blur"/><feOffset result="offset"/><feComposite in2="offset" in="SourceGraphic" result="composite2"/></filter><linearGradient xlink:href="#b" x1="-104.472" y1="610.377" x2="229.762" y2="610.377" gradientUnits="userSpaceOnUse"/><linearGradient xlink:href="#b" gradientUnits="userSpaceOnUse" x1="-104.472" y1="610.377" x2="229.762" y2="610.377"/><linearGradient xlink:href="#b" gradientUnits="userSpaceOnUse" x1="-104.472" y1="610.377" x2="229.762" y2="610.377"/><linearGradient xlink:href="#b" gradientUnits="userSpaceOnUse" x1="-104.472" y1="610.377" x2="229.762" y2="610.377" gradientTransform="translate(3.03 13.132)"/><filter id="g" color-interpolation-filters="sRGB"><feFlood flood-opacity=".997" flood-color="#000" result="flood"/><feComposite in2="SourceGraphic" in="flood" operator="in" result="composite1"/><feGaussianBlur stdDeviation="3" result="blur"/><feOffset result="offset"/><feComposite in2="offset" in="SourceGraphic" result="composite2"/></filter><linearGradient xlink:href="#c" x1="-92.44" y1="609.533" x2="227.078" y2="609.533" gradientUnits="userSpaceOnUse" gradientTransform="translate(-22.223 -18.183)"/><filter id="i" color-interpolation-filters="sRGB"><feFlood flood-opacity=".997" flood-color="#000" result="flood"/><feComposite in2="SourceGraphic" in="flood" operator="in" result="composite1"/><feGaussianBlur stdDeviation="3" result="blur"/><feOffset result="offset"/><feComposite in2="offset" in="SourceGraphic" result="composite2"/></filter><linearGradient xlink:href="#d" x1="-106.63" y1="587.336" x2="218.632" y2="587.336" gradientUnits="userSpaceOnUse" gradientTransform="translate(1.281 3.03)"/><filter id="k" color-interpolation-filters="sRGB"><feFlood flood-opacity=".997" flood-color="#000" result="flood"/><feComposite in2="SourceGraphic" in="flood" operator="in" result="composite1"/><feGaussianBlur stdDeviation="3" result="blur"/><feOffset result="offset"/><feComposite in2="offset" in="SourceGraphic" result="composite2"/></filter><linearGradient xlink:href="#b" gradientUnits="userSpaceOnUse" gradientTransform="translate(3.03 13.132)" x1="-104.472" y1="610.377" x2="229.762" y2="610.377"/><linearGradient xlink:href="#c" gradientUnits="userSpaceOnUse" gradientTransform="translate(-22.223 -18.183)" x1="-92.44" y1="609.533" x2="227.078" y2="609.533"/><linearGradient xlink:href="#d" gradientUnits="userSpaceOnUse" gradientTransform="translate(1.281 3.03)" x1="-106.63" y1="587.336" x2="218.632" y2="587.336"/><linearGradient xlink:href="#a" gradientUnits="userSpaceOnUse" gradientTransform="translate(-692.965 172.736)" x1="523.779" y1="279.595" x2="772.246" y2="476.575"/><linearGradient xlink:href="#a" id="e" gradientUnits="userSpaceOnUse" gradientTransform="translate(-692.965 172.736)" x1="523.779" y1="279.595" x2="772.246" y2="476.575"/><linearGradient xlink:href="#b" id="f" gradientUnits="userSpaceOnUse" gradientTransform="translate(3.03 13.132)" x1="-104.472" y1="610.377" x2="229.762" y2="610.377"/><linearGradient xlink:href="#c" id="h" gradientUnits="userSpaceOnUse" gradientTransform="translate(-22.223 -18.183)" x1="-92.44" y1="609.533" x2="227.078" y2="609.533"/><linearGradient xlink:href="#d" id="j" gradientUnits="userSpaceOnUse" gradientTransform="translate(1.281 3.03)" x1="-106.63" y1="587.336" x2="218.632" y2="587.336"/></defs><g><g color="#000" transform="matrix(.214 0 0 .214 43.125 -70.213)"><rect width="420.223" height="310.117" x="-155.563" y="454.352" ry="1.037" fill="#f3f7ff" overflow="visible" enable-background="accumulate"/><path d="M-150.402 443.236c-12.934 0-23.344 10.41-23.344 23.344V759.3c0 12.933 10.41 23.342 23.344 23.342H-34.34v31.313c0 .574.457 1.03 1.032 1.03H144.41c.575 0 1.032-.456 1.032-1.03v-31.313h116.062c12.934 0 23.344-10.41 23.344-23.343V466.58c0-12.934-10.41-23.344-23.344-23.344h-411.906zm14.812 22.22h382.313c4.525 0 8.156 3.66 8.156 8.186v278.625c0 4.525-3.632 8.157-8.157 8.157H-135.59c-4.525 0-8.187-3.632-8.187-8.157V473.642c0-4.525 3.662-8.187 8.187-8.187z" fill="url(#e)" stroke="#484848" stroke-width="9.356" stroke-linecap="round" stroke-linejoin="round" overflow="visible" enable-background="accumulate"/></g><g color="#000" font-family="Sans"><path style="text-indent:0;text-align:start;line-height:normal;text-transform:none;block-progression:tb;-inkscape-font-specification:Sans" d="M18.07 45.93c2.676 2.81 5.81 4.936 9.623 5.866 4.485 1.47 8.933 3.77 11.47 7.92 3.573 4.564 6.056 10.215 10.71 13.786 3.996 1.244 8.054-.952 11.88-1.935 4.44-.883 8.764-6.16 13.253-2.76 5.395 4.384 9.365 10.287 12.94 16.186-2.008 5.043-5.285-2.77-6.985-4.838-2.402-3.44-5.094-6.79-8.608-9.157-4.045.276-7.143 3.556-11.183 4.147-4.75 1.425-11.167 3.836-15.146-.44-4.927-5.367-7.773-12.442-13.377-17.204-5.11-3.056-11.883-3.537-15.776-8.436-.653-1.116-.49-3.175 1.2-3.134z" fill="url(#f)" overflow="visible" filter="url(#g)" enable-background="accumulate"/><path style="text-indent:0;text-align:start;line-height:normal;text-transform:none;block-progression:tb;-inkscape-font-specification:Sans" d="M-107.067 488.192a7.5 7.5 0 0 0-5.875 12.28c16.1 20.08 40.515 29.047 60.656 39.783 20.14 10.735 35.55 21.776 39.5 45.47l.156.75.282.717c6.946 17.84 12.063 44.195 22.593 66.563 5.265 11.184 11.997 21.54 21.563 29.125 9.565 7.586 22.005 12.08 36.937 11.594l.25-.032h.22c44.357-4.27 87.74-15.497 129.874-27.843a7.5 7.5 0 1 0-4.22-14.376c-41.71 12.222-84.095 23.106-126.78 27.25-11.74.35-20-2.818-26.97-8.344-7-5.553-12.64-13.826-17.312-23.75-9.286-19.724-14.358-45.27-22.063-65.22-5.263-28.727-25.95-43.92-46.968-55.124-21.298-11.352-43.312-20.146-56-35.97a7.5 7.5 0 0 0-5.844-2.874z" transform="matrix(.214 0 0 -.214 46.986 186.128)" fill="url(#h)" overflow="visible" filter="url(#i)" enable-background="accumulate"/><path style="text-indent:0;text-align:start;line-height:normal;text-transform:none;block-progression:tb;-inkscape-font-specification:Sans" d="M19.094 550.093c-8.96-.223-18.578 3.062-28.813 7.437-13.646 5.834-28.352 14.37-42.03 23.188-27.357 17.635-50.688 36.5-50.688 36.5A7.5 7.5 0 1 0-93 628.874s22.846-18.43 49.375-35.53c13.264-8.55 27.447-16.73 39.78-22 12.335-5.273 22.893-6.877 26.94-5.532 31.298 10.406 73.513 21.016 108.592 17.906 16.963-1.504 27.994-3.894 38.22-3.094 10.224.8 20.707 4.42 38.25 16.438a7.507 7.507 0 1 0 8.5-12.375c-18.75-12.845-32.45-18.003-45.595-19.032-13.143-1.028-24.66 1.704-40.687 3.125-30.903 2.74-72.278-7.118-102.563-17.187-2.837-.943-5.732-1.426-8.718-1.5z" fill="url(#j)" overflow="visible" filter="url(#k)" enable-background="accumulate" transform="matrix(.214 0 0 .214 40.747 -66.97)"/></g><path d="M95.87 31.126H51.34l25.56 59.23h18.97z" opacity=".356" fill="#fff"/></g></svg>