<svg xmlns="http://www.w3.org/2000/svg" xmlns:xlink="http://www.w3.org/1999/xlink" width="48" height="48"><defs><linearGradient id="a"><stop offset="0" stop-color="#c9c9c9"/><stop offset=".25" stop-color="#f8f8f8"/><stop offset=".5" stop-color="#e2e2e2"/><stop offset=".75" stop-color="#b0b0b0"/><stop offset="1" stop-color="#c9c9c9"/></linearGradient><linearGradient xlink:href="#a" gradientUnits="userSpaceOnUse" x1="14.463" y1="12.285" x2="34.534" y2="39.685" gradientTransform="matrix(1.242 0 0 1.242 -5.028 -7.209)"/><linearGradient id="c"><stop offset="0" stop-opacity=".327"/><stop offset="1" stop-opacity="0"/></linearGradient><linearGradient id="b" gradientUnits="userSpaceOnUse" x1="99.777" y1="15.424" x2="153" y2="248.631"><stop offset="0" stop-color="#184375"/><stop offset="1" stop-color="#C8BDDC"/></linearGradient><linearGradient xlink:href="#b" gradientUnits="userSpaceOnUse" x1="99.777" y1="15.424" x2="153" y2="248.631" gradientTransform="matrix(.201 0 0 .201 -.586 -1.051)"/><radialGradient gradientUnits="userSpaceOnUse" r="11.69" fy="72.568" fx="14.288" cy="68.873" cx="14.288" gradientTransform="matrix(1.399 0 0 .513 4.365 4.839)" xlink:href="#c"/><linearGradient xlink:href="#a" gradientUnits="userSpaceOnUse" gradientTransform="matrix(1.242 0 0 1.242 -5.028 -7.209)" x1="14.463" y1="12.285" x2="34.534" y2="39.685"/><linearGradient xlink:href="#b" id="d" gradientUnits="userSpaceOnUse" gradientTransform="matrix(.201 0 0 .201 -54.336 -1.051)" x1="99.777" y1="15.424" x2="153" y2="248.631"/></defs><g color="#000"><path d="M22.7.947c-.474.033-.934.106-1.398.16h-.032l-1.112 6.067c-1.812.413-3.517 1.113-5.05 2.065l-4.99-3.59C8.772 6.695 7.545 7.916 6.466 9.24l3.463 5.05c-1.05 1.607-1.842 3.442-2.287 5.37v.03l-6.035.954c-.11.902-.16 1.833-.16 2.764 0 .762.022 1.514.096 2.256l6.037 1.08c.43 2.096 1.245 4.054 2.383 5.782L6.37 37.45c1.028 1.277 2.215 2.44 3.495 3.463l5.083-3.494c1.776 1.132 3.76 1.927 5.91 2.318l.952 6.004c.677.062 1.372.064 2.065.064.98 0 1.914-.037 2.86-.16l1.143-6.13c2.04-.508 3.958-1.39 5.623-2.574l4.894 3.558c1.268-1.08 2.43-2.32 3.43-3.653L38.268 31.7c.963-1.664 1.63-3.5 1.97-5.464l6.004-.953c.053-.627.064-1.234.064-1.875 0-1.112-.13-2.203-.286-3.272l-6.1-1.112c-.477-1.765-1.262-3.412-2.255-4.892l3.59-4.924c-1.113-1.36-2.382-2.618-3.78-3.686l-5.18 3.558c-1.487-.88-3.09-1.555-4.828-1.938l-.953-6.036c-.868-.102-1.742-.16-2.637-.16-.242 0-.49-.006-.73 0-.118.005-.233-.005-.35 0-.032.003-.064 0-.095 0zm.826 15.44c.116-.006.23 0 .35 0 3.76 0 6.83 3.07 6.83 6.83 0 3.76-3.07 6.8-6.83 6.8-3.762 0-6.8-3.04-6.8-6.8 0-3.642 2.852-6.647 6.45-6.83z" fill="url(#d)" stroke="#3f4561" stroke-linecap="round" stroke-linejoin="round" overflow="visible"/><path d="M36.24 23.782a12.728 12.728 0 1 1-25.457 0 12.728 12.728 0 1 1 25.456 0z" transform="matrix(.617 0 0 .617 9.382 8.54)" opacity=".648" stroke="#fff" stroke-width="1.622" overflow="visible" fill="none"/><path d="M21.996 2.148l-.893 5.876c-1.7.386-4.824 1.57-6.26 2.462l-4.75-3.545C8.827 7.923 8.74 7.99 7.73 9.23l3.435 5.093c-.985 1.507-2.17 4.19-2.594 6.11l-6.017 1.013c-.103.845-.054 2.654.016 3.35l5.747 1.035c.402 1.965 1.908 5.127 2.975 6.747l-3.635 4.803c.964 1.196 1.156 1.306 2.356 2.266l4.86-3.56c1.666 1.06 4.97 2.353 6.986 2.72l.796 5.8c.635.06 2.39.22 3.275.107l.894-6.038c1.913-.476 5.22-1.833 6.78-2.943l4.855 3.507c1.188-1.012 1.2-1.164 2.138-2.414L37 31.71c.903-1.56 2.07-4.612 2.388-6.453l5.89-.977c.05-.588.053-2.225-.094-3.228l-6.002-1.035c-.448-1.655-1.986-4.636-2.917-6.024L40.08 9.19c-1.043-1.275-1.43-1.45-2.742-2.45l-5.024 3.598c-1.395-.825-4.177-2.083-5.807-2.44l-.887-5.75c-.814-.095-3.16-.053-3.624 0z" opacity=".347" stroke="#fff" overflow="visible" fill="none"/><path d="M10.103 6.297C8.755 7.344 8.166 7.972 7.087 9.294l3.403 4.965c-1.05 1.598-2.158 4.166-2.348 5.728L2.08 21.032c-.07.563-.174 1.853-.174 1.853l.177 1.562c.428.09.84.17 1.28.22l.5-1.532c.345.028.68.062 1.033.062.35 0 .718-.034 1.062-.062l.47 1.53c.44-.047.884-.13 1.31-.218v-1.562c.687-.16 1.333-.388 1.97-.656l.938 1.28c.402-.182.775-.376 1.156-.594l-.5-1.5c.597-.362 1.162-.795 1.687-1.25l1.28.938c.326-.297.642-.612.938-.938l-.937-1.25c.455-.526.857-1.09 1.22-1.687l1.5.467c.217-.38.443-.754.624-1.156l-1.28-.936c.268-.637.464-1.283.624-1.97h1.594c.088-.427.14-.87.187-1.312l-1.5-.468c.028-.344.062-.712.062-1.063 0-.35-.034-.686-.063-1.03l1.5-.47c-.046-.42-.106-.84-.188-1.25-1.148.4-2.553 1.154-3.57 1.785l-4.88-3.528z" opacity=".5" fill="#fff" overflow="visible"/><path d="M37.237 17.218c-.384.18-.747.386-1.114.595l.57 1.735c-.697.422-1.355.92-1.968 1.45L33.25 19.91c-.38.347-.743.708-1.088 1.088l1.087 1.476c-.53.613-1.028 1.27-1.45 1.968l-.545-.18c-.047.7-.236 1.36-.518 1.967l.104.076c-.312.743-.564 1.53-.75 2.33h-1.476c-.136.086-.27.186-.414.26-.078.415-.135.817-.18 1.242l1.76.57c-.034.4-.052.807-.052 1.217 0 .41.018.816.05 1.217l-1.76.57c.057.514.13 1.028.234 1.527l1.838-.027c.128.55.303 1.108.492 1.632.745-.288 1.474-.63 2.15-1.036-.412-1.217-.648-2.53-.648-3.885 0-5.198 3.292-9.637 7.897-11.34l-1.086-.182c-.223-.823-.512-1.63-.88-2.383-.01-.022-.015-.055-.026-.077l-.052-.052-.7-.672z" opacity=".5" fill="#fff" overflow="visible"/></g></svg>